<svg id="Fox_Character_copy" data-name="Fox Character copy" xmlns="http://www.w3.org/2000/svg" viewBox="0 0 619.65 731.66"><defs><style>.cls-1{fill:#7b7a7a;}.cls-2{fill:#9b9a9a;}.cls-3{fill:#593921;}.cls-4{fill:#fff;}.cls-5{fill:#c52026;}.cls-6{fill:#b0b0b0;}.cls-7{fill:#262626;}.cls-8{fill:#f8bc23;}.cls-9{fill:#342a26;}.cls-10{fill:#070808;}.cls-11{fill:#2d2d2d;}.cls-12{fill:#7c5031;}</style></defs><title>fox_logo_profileshot</title><path class="cls-1" d="M1111.85,352.51s-39.68,22.51-61.38,76.77C1025,486.12,1031,604.61,942,699.61c-97.85,87.87-137.64,29.71-137.78,2.25,0,0,72.91,13.49,93.67-65.35S925.34,467,1034,393.89C1095.44,351.82,1111.85,352.51,1111.85,352.51Z" transform="translate(-492.21 -64.65)"/><path class="cls-2" d="M1107.33,351.93s-39.68,22.51-61.38,76.77C1020.44,485.55,1026.46,604,937.44,699c-97.85,87.87-174.06,67.31-174.21,39.85,0,0,109.33-24.1,130.09-102.94s27.5-169.55,136.11-242.62C1090.92,351.24,1107.33,351.93,1107.33,351.93Z" transform="translate(-492.21 -64.65)"/><path class="cls-3" d="M1083.69,366.44s-37.78,24.11-72.3,137.11l1.81-29.34L989.47,518l-1.54-22.37-19.86,36.27-.14-28.31L950,530.78l-8-17.43-6.35,11.53S948.82,433.77,1083.69,366.44Z" transform="translate(-492.21 -64.65)"/><rect id="left_arm" data-name="left arm" class="cls-3" x="625.01" y="598.44" width="92.2" height="152.31" rx="46.1" ry="46.1" transform="translate(-166.81 -276.59) rotate(23.55)"/><rect id="right_arm" data-name="right arm" class="cls-3" x="845.34" y="602.6" width="92.2" height="144.95" rx="46.1" ry="46.1" transform="translate(-718.59 580.92) rotate(-35.62)"/><g id="Main_Body_copy" data-name="Main Body copy"><rect class="cls-2" x="161.15" y="427.32" width="263.14" height="299.56" rx="131.57" ry="131.57"/><rect class="cls-4" x="240.61" y="529.84" width="99.22" height="154.98" rx="49.61" ry="49.61"/></g><g id="scarf_copy" data-name="scarf copy"><path d="M711.94,644.94" transform="translate(-492.21 -64.65)"/><path class="cls-5" d="M654.32,627.41c16.87,13.29,72.44,20.12,93,23.69,0,0,42.73,4.85,125.71-15.18,22.45-5.12,21.09-5.12,21.09-5.12a89.37,89.37,0,0,0,17.22-10.09c8.31-6.22,8.84-6.28,18.72-22.17,1.11-18.84,5-87.66-15.56-79.54s-29.08,13-29.08,13,1.9-26-22.62-29.57-32.61-.28-81.49-1.62-88.36,28.77-83.2,39.68c0,0-55.42,4.93-52.86,23l4.92,34.69s-14,19.9,4.15,29.28" transform="translate(-492.21 -64.65)"/><path class="cls-6" d="M661.81,555" transform="translate(-492.21 -64.65)"/><polygon class="cls-6" points="165.15 564.54 162.43 562.73 162.43 488.15 165.15 488.15 165.15 564.54"/><polygon class="cls-6" points="233.89 582.68 231.17 582.38 231.17 493.84 233.89 493.84 233.89 582.68"/><polygon class="cls-6" points="181.68 571.48 178.96 570.51 178.96 491.29 181.68 491.29 181.68 571.48"/><polygon class="cls-6" points="199.52 576.22 196.8 575.59 196.8 492.57 199.52 492.57 199.52 576.22"/><polygon class="cls-6" points="217.13 579.92 214.41 579.33 214.41 491.29 217.13 491.29 217.13 579.92"/><polygon class="cls-6" points="252.03 585.65 249.31 585.12 249.31 488.15 252.03 488.15 252.03 585.65"/><polygon class="cls-6" points="320.77 581.6 318.05 581.99 318.05 493.84 320.77 493.84 320.77 581.6"/><rect class="cls-6" x="265.84" y="491.29" width="2.72" height="95.03"/><polygon class="cls-6" points="286.4 585.49 283.68 585.65 283.68 492.57 286.4 492.57 286.4 585.49"/><polygon class="cls-6" points="304.33 583.73 300.98 584.15 300.98 491.29 304.33 491.29 304.33 583.73"/><polygon class="cls-6" points="335.88 579.16 333.16 579.63 333.16 488.15 335.88 488.15 335.88 579.16"/><rect class="cls-6" x="401.9" y="493.84" width="2.72" height="72.3"/><polygon class="cls-6" points="352.41 576.48 349.69 576.9 349.69 491.29 352.41 491.29 352.41 576.48"/><polygon class="cls-6" points="370.25 572.66 367.53 573.19 367.53 492.76 370.25 492.76 370.25 572.66"/><polygon class="cls-6" points="387.86 568.43 385.14 569.75 385.14 491.29 387.86 491.29 387.86 568.43"/><polygon class="cls-6" points="419.12 555.42 416.4 557.66 416.4 488.15 419.12 488.15 419.12 555.42"/><line class="cls-6" x1="381.73" y1="573.95" x2="380.82" y2="569.99"/><line class="cls-6" x1="388.25" y1="581.54" x2="383.18" y2="579.78"/><line class="cls-6" x1="382.53" y1="593.03" x2="381.73" y2="590.42"/><line class="cls-6" x1="386.72" y1="606.29" x2="385.88" y2="603.68"/><line class="cls-6" x1="390.67" y1="618.52" x2="389.93" y2="616.24"/><line class="cls-6" x1="395.3" y1="632.66" x2="394.44" y2="630.05"/><line class="cls-6" x1="399.72" y1="646.08" x2="398.86" y2="643.48"/><line class="cls-6" x1="404.17" y1="659.54" x2="403.31" y2="656.94"/><line class="cls-6" x1="408.62" y1="672.94" x2="407.76" y2="670.34"/><polygon class="cls-6" points="431.12 545.76 428.4 547.9 428.4 474.46 431.12 474.46 431.12 545.76"/><rect class="cls-7" x="772.8" y="517.8" width="23.05" height="380.05" rx="3" ry="3" transform="translate(993.94 -146.52) rotate(89.56)"/></g><rect class="cls-8" x="928.98" y="692.77" width="60.51" height="27.26" rx="2.13" ry="2.13" transform="translate(1210.11 -289.37) rotate(92.22)"/><g id="Ears_copy" data-name="Ears copy"><path class="cls-1" d="M1009.82,381.39S1110.07,251.6,1059,150.17C952.47,169.55,903.35,278.23,903.35,278.23S973.41,287,1009.82,381.39Z" transform="translate(-492.21 -64.65)"/><path class="cls-2" d="M998.86,385S1099.11,255.16,1048,153.73C941.5,173.11,892.39,281.79,892.39,281.79S962.44,290.52,998.86,385Z" transform="translate(-492.21 -64.65)"/><path class="cls-3" d="M970.13,349.46s71.21-66.71,50.85-131.14c-64.42,1.27-103.58,60.44-103.58,60.44S957.71,290.54,970.13,349.46Z" transform="translate(-492.21 -64.65)"/><path class="cls-1" d="M587.9,384.12S464.49,269.2,500.84,161.54c112.4,4.53,161.46,96,161.46,96S610.33,285.42,587.9,384.12Z" transform="translate(-492.21 -64.65)"/><path class="cls-2" d="M586,395.95S462.55,281,498.91,173.37c112.4,4.53,180,105.55,180,105.55S608.4,297.25,586,395.95Z" transform="translate(-492.21 -64.65)"/><path class="cls-3" d="M598.34,358.43S524.91,290.06,546.54,226c66.88,2.69,107.09,62.8,107.09,62.8S611.69,299.71,598.34,358.43Z" transform="translate(-492.21 -64.65)"/></g><g id="Head_copy" data-name="Head copy"><rect class="cls-3" x="69.98" y="202.91" width="454.73" height="279.02" rx="139.51" ry="139.51"/><path class="cls-2" d="M1038.74,429.87h-33.43l6.82-28.75-29.33,25.72V401.12L961,425.33l-347.91.76L591.58,399.8v27.62L561.91,399.8l7.16,30.07H534.79s27.8,104.41,143.09,128.62H889.35S998.5,546.39,1038.74,429.87Z" transform="translate(-492.21 -64.65)"/><path class="cls-4" d="M771.78,446.9,758.64,296.16c.48-4.45,46.92-4.77,47.27-.3L796,446.9s32.54-5.39,32.54,37-28.39,37.38-28.39,37.38l-39.38.19s-19.49-4.89-19.49-39.4C741.3,441.52,771.78,446.9,771.78,446.9Z" transform="translate(-492.21 -64.65)"/><ellipse class="cls-9" cx="292.72" cy="408.17" rx="18.85" ry="9.27"/></g><g id="eyes_copy" data-name="eyes copy"><circle class="cls-4" cx="197.98" cy="316.67" r="66.38"/><circle class="cls-4" cx="383.62" cy="316.67" r="66.38"/><circle class="cls-10" cx="199.52" cy="316.67" r="29.5"/><circle class="cls-10" cx="383.62" cy="315.11" r="29.5"/></g><g id="hat_copy" data-name="hat copy"><path d="M688.27-74.18" transform="translate(-492.21 -64.65)"/><rect x="204.95" y="166.48" width="169.55" height="32.82" rx="1" ry="1"/><path d="M678.61,64.65s38.26,85.48,29.29,166.48H857.1s-14.41-64.35,29.13-166.48Z" transform="translate(-492.21 -64.65)"/><path d="M866.71,258.11s33.94-7.2,47.38-20.65c3.56-3.12,5.28,7.44,0,11.77S885.76,266,879.27,267.56H685.73s-48.23-18.1-39-29.26c5.27-5.52,6.95,11.17,50.43,18.61" transform="translate(-492.21 -64.65)"/></g><circle class="cls-8" cx="988.36" cy="706.18" r="24.96" transform="translate(-227.44 1617.21) rotate(-88.98)"/><g id="right_leg_copy" data-name="right leg copy"><path class="cls-3" d="M743.27,682.41v17.16c0,1-.79,2.12-1.75,2.12s-1.75-1.15-1.75-2.12v-18.4a44.39,44.39,0,0,0-10.92-1.91v17.09a1.75,1.75,0,0,1-3.5,0V679.24A44.42,44.42,0,0,0,714,681v18.88a1.75,1.75,0,0,1-3.5,0V682.25A45,45,0,0,0,681.86,724v27.44a45,45,0,0,0,44.83,44.83h0a45,45,0,0,0,44.83-44.83V724A45,45,0,0,0,743.27,682.41Z" transform="translate(-492.21 -64.65)"/><path class="cls-11" d="M712.28,701.68a1.76,1.76,0,0,0,1.75-1.75V681q-1.78.53-3.5,1.2v17.68A1.76,1.76,0,0,0,712.28,701.68Z" transform="translate(-492.21 -64.65)"/><path class="cls-11" d="M727.1,701.68a1.94,1.94,0,0,0,1.75-2.08V679.27c-.71,0-1.43-.07-2.15-.07h0c-.45,0-.9,0-1.35,0V699.6A1.94,1.94,0,0,0,727.1,701.68Z" transform="translate(-492.21 -64.65)"/><path class="cls-11" d="M741.52,701.68a1.7,1.7,0,0,0,1.75-1.62V682.32c-1.15-.43-2.31-.82-3.5-1.16v18.89A1.7,1.7,0,0,0,741.52,701.68Z" transform="translate(-492.21 -64.65)"/><path class="cls-3" d="M862.81,682.41v17.16c0,1-.79,2.12-1.75,2.12s-1.75-1.15-1.75-2.12v-18.4a44.39,44.39,0,0,0-10.92-1.91v17.09a1.75,1.75,0,0,1-3.5,0V679.24A44.42,44.42,0,0,0,833.57,681v18.88a1.75,1.75,0,1,1-3.5,0V682.25A45,45,0,0,0,801.4,724v27.44a45,45,0,0,0,44.83,44.83h0a45,45,0,0,0,44.83-44.83V724A45,45,0,0,0,862.81,682.41Z" transform="translate(-492.21 -64.65)"/><path class="cls-11" d="M831.82,701.68a1.76,1.76,0,0,0,1.75-1.75V681q-1.78.53-3.5,1.2v17.68A1.76,1.76,0,0,0,831.82,701.68Z" transform="translate(-492.21 -64.65)"/><path class="cls-11" d="M846.64,701.68a1.94,1.94,0,0,0,1.75-2.08V679.27c-.71,0-1.43-.07-2.15-.07h0c-.45,0-.9,0-1.35,0V699.6A1.94,1.94,0,0,0,846.64,701.68Z" transform="translate(-492.21 -64.65)"/><path class="cls-11" d="M861.06,701.68a1.7,1.7,0,0,0,1.75-1.62V682.32c-1.15-.43-2.31-.82-3.5-1.16v18.89A1.7,1.7,0,0,0,861.06,701.68Z" transform="translate(-492.21 -64.65)"/><rect class="cls-12" x="211.39" y="652.05" width="45" height="62.25" rx="22.5" ry="22.5"/><rect class="cls-12" x="331.91" y="652.05" width="45" height="62.25" rx="22.5" ry="22.5"/></g></svg>